<svg width="51" height="106" viewBox="0 0 51 106" fill="none" xmlns="http://www.w3.org/2000/svg">
<path d="M29.4062 27.125C35.474 27.125 40.1875 28.6875 43.5469 31.8125C46.9323 34.9375 48.625 39.0521 48.625 44.1562C48.625 49.3125 46.9323 53.4401 43.5469 56.5391C40.1875 59.638 35.474 61.1875 29.4062 61.1875H17.3359V77.9844L23.7031 79.0781V84H3.27344V79.0781L9.64062 77.9844V33.1797L3.27344 32.0859V27.125H9.64062H29.4062ZM17.3359 55.1719H29.4062C33.2604 55.1719 36.138 54.1432 38.0391 52.0859C39.9661 50.0026 40.9297 47.3854 40.9297 44.2344C40.9297 41.0833 39.9661 38.4531 38.0391 36.3438C36.138 34.2344 33.2604 33.1797 29.4062 33.1797H17.3359V55.1719Z" fill="white"/>
<rect x="3.5" y="66" width="42" height="4.5" fill="white"/>
</svg>
